<svg width="1200" height="900" viewBox="0 0 1200 900" fill="none" xmlns="http://www.w3.org/2000/svg">
  <defs>
    <linearGradient id="bgGradient" x1="0%" y1="0%" x2="100%" y2="100%">
      <stop offset="0%" style="stop-color:#3b82f6;stop-opacity:1" />
      <stop offset="50%" style="stop-color:#1d4ed8;stop-opacity:1" />
      <stop offset="100%" style="stop-color:#1e40af;stop-opacity:1" />
    </linearGradient>
    <linearGradient id="mountainGradient" x1="0%" y1="0%" x2="0%" y2="100%">
      <stop offset="0%" style="stop-color:#374151;stop-opacity:1" />
      <stop offset="100%" style="stop-color:#1f2937;stop-opacity:1" />
    </linearGradient>
  </defs>
  
  <!-- Background -->
  <rect width="1200" height="900" fill="url(#bgGradient)"/>
  
  <!-- Mountains -->
  <polygon points="0,600 200,400 400,500 600,350 800,450 1000,300 1200,400 1200,900 0,900" fill="url(#mountainGradient)" opacity="0.8"/>
  <polygon points="100,650 300,450 500,550 700,400 900,500 1100,350 1200,450 1200,900 0,900" fill="url(#mountainGradient)" opacity="0.6"/>
  
  <!-- City skyline -->
  <rect x="150" y="500" width="40" height="250" fill="#1f2937" opacity="0.9"/>
  <rect x="200" y="450" width="50" height="300" fill="#374151" opacity="0.9"/>
  <rect x="260" y="480" width="45" height="270" fill="#1f2937" opacity="0.9"/>
  <rect x="320" y="420" width="55" height="330" fill="#374151" opacity="0.9"/>
  <rect x="390" y="460" width="40" height="290" fill="#1f2937" opacity="0.9"/>
  <rect x="450" y="400" width="60" height="350" fill="#374151" opacity="0.9"/>
  <rect x="520" y="440" width="45" height="310" fill="#1f2937" opacity="0.9"/>
  <rect x="580" y="380" width="50" height="370" fill="#374151" opacity="0.9"/>
  <rect x="640" y="420" width="40" height="330" fill="#1f2937" opacity="0.9"/>
  <rect x="690" y="460" width="55" height="290" fill="#374151" opacity="0.9"/>
  <rect x="760" y="440" width="45" height="310" fill="#1f2937" opacity="0.9"/>
  <rect x="820" y="400" width="50" height="350" fill="#374151" opacity="0.9"/>
  <rect x="880" y="480" width="40" height="270" fill="#1f2937" opacity="0.9"/>
  <rect x="930" y="450" width="55" height="300" fill="#374151" opacity="0.9"/>
  <rect x="1000" y="420" width="45" height="330" fill="#1f2937" opacity="0.9"/>
  
  <!-- Building windows -->
  <rect x="170" y="520" width="8" height="8" fill="#fbbf24" opacity="0.8"/>
  <rect x="170" y="540" width="8" height="8" fill="#fbbf24" opacity="0.6"/>
  <rect x="170" y="560" width="8" height="8" fill="#fbbf24" opacity="0.8"/>
  <rect x="220" y="480" width="10" height="10" fill="#fbbf24" opacity="0.7"/>
  <rect x="220" y="500" width="10" height="10" fill="#fbbf24" opacity="0.9"/>
  <rect x="220" y="520" width="10" height="10" fill="#fbbf24" opacity="0.5"/>
  <rect x="340" y="450" width="10" height="10" fill="#fbbf24" opacity="0.8"/>
  <rect x="340" y="470" width="10" height="10" fill="#fbbf24" opacity="0.6"/>
  <rect x="470" y="430" width="12" height="12" fill="#fbbf24" opacity="0.9"/>
  <rect x="470" y="450" width="12" height="12" fill="#fbbf24" opacity="0.7"/>
  <rect x="600" y="410" width="10" height="10" fill="#fbbf24" opacity="0.8"/>
  <rect x="600" y="430" width="10" height="10" fill="#fbbf24" opacity="0.6"/>
  <rect x="840" y="430" width="10" height="10" fill="#fbbf24" opacity="0.7"/>
  <rect x="840" y="450" width="10" height="10" fill="#fbbf24" opacity="0.9"/>
  
  <!-- Maple leaf symbol -->
  <g transform="translate(550, 150) scale(3)">
    <path d="M12 2l3.09 6.26L22 9l-5.55 5.12L18 21l-6-3.27L6 21l1.55-6.88L2 9l6.91-.74L12 2z" fill="#dc2626" opacity="0.9"/>
  </g>
  
  <!-- Text -->
  <text x="600" y="250" text-anchor="middle" fill="white" font-family="Arial, sans-serif" font-size="48" font-weight="bold" opacity="0.9">
    CANADA
  </text>
  <text x="600" y="290" text-anchor="middle" fill="white" font-family="Arial, sans-serif" font-size="24" opacity="0.7">
    Your Immigration Destination
  </text>
</svg>